<?xml version="1.0" encoding="utf-8"?>
<!-- Generator: Adobe Illustrator 14.0.0, SVG Export Plug-In . SVG Version: 6.00 Build 43363)  -->
<!DOCTYPE svg PUBLIC "-//W3C//DTD SVG 1.1//EN" "http://www.w3.org/Graphics/SVG/1.1/DTD/svg11.dtd">
<svg version="1.1" id="Layer_1" xmlns="http://www.w3.org/2000/svg" xmlns:xlink="http://www.w3.org/1999/xlink" x="0px" y="0px"
	 width="4251.969px" height="4251.969px" viewBox="0 0 4251.969 4251.969" enable-background="new 0 0 4251.969 4251.969"
	 xml:space="preserve">
<g>
	<g>
		<g>
			<g>
				<path fill="#BB9C5C" d="M762.047,3393.958H377.176c-29.758,0-53.883-24.125-53.883-53.885v-923.693
					c0-29.76,24.125-53.881,53.883-53.881H762.05c29.758,0,53.882,24.121,53.882,53.881v923.691
					C815.931,3369.833,791.808,3393.958,762.047,3393.958z M431.058,3286.19h277.108v-815.928H431.058V3286.19z"/>
			</g>
			<g>
				<path fill="#BB9C5C" d="M1377.844,3393.958H992.971c-29.758,0-53.881-24.125-53.881-53.885V1646.636
					c0-29.759,24.124-53.882,53.881-53.882h384.873c29.759,0,53.881,24.124,53.881,53.882v1693.437
					C1431.725,3369.833,1407.603,3393.958,1377.844,3393.958z M1046.854,3286.19h277.107V1700.519h-277.107V3286.19z"/>
			</g>
			<g>
				<path fill="#BB9C5C" d="M1993.639,3393.958h-384.872c-29.758,0-53.883-24.125-53.883-53.885V2031.508
					c0-29.76,24.125-53.882,53.883-53.882h384.873c29.758,0,53.88,24.123,53.88,53.882v1308.565
					C2047.52,3369.833,2023.397,3393.958,1993.639,3393.958z M1662.651,3286.19h277.107v-1200.8h-277.107V3286.19L1662.651,3286.19z
					"/>
			</g>
			<g>
				<path fill="#BB9C5C" d="M2609.434,3393.958h-384.871c-29.76,0-53.885-24.125-53.885-53.885V1569.662
					c0-29.759,24.125-53.883,53.885-53.883h384.871c29.76,0,53.882,24.124,53.882,53.883v1770.411
					C2663.316,3369.833,2639.192,3393.958,2609.434,3393.958z M2278.446,3286.19h277.106V1623.544h-277.106V3286.19z"/>
			</g>
			<g>
				<path fill="#BB9C5C" d="M3225.229,3393.958h-384.871c-29.76,0-53.882-24.125-53.882-53.885V1184.791
					c0-29.76,24.122-53.882,53.882-53.882h384.871c29.761,0,53.883,24.122,53.883,53.882v2155.282
					C3279.112,3369.833,3254.99,3393.958,3225.229,3393.958z M2894.241,3286.19h277.104V1238.671h-277.104V3286.19z"/>
			</g>
			<g>
				<path fill="#BB9C5C" d="M3379.178,3701.854H69.28c-29.76,0-53.884-24.123-53.884-53.881V568.996
					c0-29.76,24.124-53.882,53.884-53.882c29.759,0,53.882,24.124,53.882,53.882V3594.09h3256.02
					c29.757,0,53.882,24.123,53.882,53.883C3433.061,3677.731,3408.936,3701.854,3379.178,3701.854z"/>
			</g>
			<g>
				<path fill="#BB9C5C" d="M454.151,1931.441H146.254c-29.759,0-53.882-24.125-53.882-53.882c0-29.759,24.124-53.882,53.882-53.882
					h279.67l676.699-977.454c9.414-13.593,24.541-22.115,41.043-23.115c16.448-0.96,32.547,5.627,43.529,17.988l574.781,646.631
					l421.674-491.95c9.771-11.392,23.848-18.196,38.842-18.773c15.118-0.562,29.559,5.134,40.174,15.742l184.445,184.445
					l369.539-554.316h-130.24c-29.758,0-53.883-24.124-53.883-53.882c0-29.76,24.125-53.883,53.883-53.883h230.924
					c19.873,0,38.123,10.938,47.51,28.458c9.375,17.519,8.353,38.779-2.681,55.313l-461.846,692.771
					c-8.952,13.433-23.461,22.136-39.526,23.73c-16.11,1.625-31.988-4.103-43.414-15.518l-189.773-189.782l-423.98,494.646
					c-10.121,11.813-24.862,18.675-40.421,18.812c-0.161,0-0.33,0-0.484,0c-15.386,0-30.043-6.573-40.266-18.087l-570.249-641.528
					l-653.744,944.299C488.389,1922.766,471.83,1931.441,454.151,1931.441z"/>
			</g>
			<g>
				<path fill="#BB9C5C" d="M2994.299,853.815c-22.562,0-43.584-14.278-51.111-36.862l-76.975-230.925
					c-9.414-28.226,5.853-58.747,34.075-68.151c28.244-9.438,58.747,5.843,68.154,34.077l76.976,230.922
					c9.414,28.226-5.853,58.748-34.076,68.153C3005.692,852.922,2999.942,853.815,2994.299,853.815z"/>
			</g>
		</g>
	</g>
	<g>
		<path fill="#BB9C5C" d="M2119.422,911.899c-28.969,426.041,295.042,792.342,716.451,820.996
			c157.449,10.707,309.102-30.155,434.857-100.694l129.479,148.373l-69.242,60.424c-19.78,17.262-21.669,45.05-4.406,64.833
			l427.279,489.63c103.585,118.697,288.818,131.293,407.519,27.707c59.349-51.791,92.172-123.994,97.211-198.088
			c5.038-74.094-17.707-150.078-69.501-209.428l-427.281-489.631c-17.268-19.781-45.051-21.672-64.836-4.408l-69.241,60.423
			l-129.479-148.372c91.544-114.735,147.929-259.773,158.633-417.224c28.971-426.042-295.041-792.34-716.449-820.995
			C2519.007,166.792,2148.074,490.489,2119.422,911.899z M4124.463,2076.392c73.367,84.078,64.865,209.113-18.896,277.855
			c-84.077,73.369-209.113,64.867-277.852-18.895l-397.069-455.012l296.743-258.958L4124.463,2076.392z M3558.16,1647.094
			l-89.025,77.688L3348.287,1586.3c29.358-21.266,59.037-47.159,89.022-77.688L3558.16,1647.094z M3568.883,1010.46
			c-25.508,375.102-351.609,655.324-722.081,630.133c-370.468-25.191-660.27-347.295-634.763-722.395
			c25.508-375.101,351.611-655.323,722.08-630.133C3309.221,313.57,3594.073,639.99,3568.883,1010.46z"/>
	</g>
</g>
</svg>
