<?xml version="1.0" encoding="utf-8"?>
<!-- Generator: Adobe Illustrator 14.0.0, SVG Export Plug-In . SVG Version: 6.00 Build 43363)  -->
<!DOCTYPE svg PUBLIC "-//W3C//DTD SVG 1.1//EN" "http://www.w3.org/Graphics/SVG/1.1/DTD/svg11.dtd">
<svg version="1.1" id="Layer_1" xmlns="http://www.w3.org/2000/svg" xmlns:xlink="http://www.w3.org/1999/xlink" x="0px" y="0px"
	 width="4251.969px" height="4251.969px" viewBox="0 0 4251.969 4251.969" enable-background="new 0 0 4251.969 4251.969"
	 xml:space="preserve">
<g>
	<path fill="#BB9C5C" d="M2718.695,4035.833v-470.941c0-27.855,5.73-54.859,17.059-80.213l217.985-490.502
		c18.771-42.348,28.386-87.391,28.386-133.82V2718.7h856.14V413.708h-461V84.423h-724.425
		c-229.117,0-428.201,130.661-526.854,321.315c-98.652-190.655-297.738-321.315-526.853-321.315H874.703v329.285H413.707v2304.988
		h856.138v129.344c0,55.846,14.355,111.102,41.425,159.9l263.031,473.379c16.199,29.176,24.828,62.367,24.828,95.887v458.629H84.423
		v131.713h4083.122v-131.713H2718.695V4035.833z M3706.545,545.421v2041.56h-1382.99v65.859
		c0,108.924-88.645,197.566-197.57,197.566c-8.23,0-16.2-2.043-24.368-3.096c-34.837-146.268-107.345-280.814-213.243-392.043
		h1488.891V545.421H3706.545z M1006.418,216.137h592.711c254.142,0,461,206.792,461,460.997v526.854h131.714V677.134
		c0-254.205,206.855-460.997,460.999-460.997h592.71v2107.418H2191.843v-987.853h-131.714v987.853H1796.7v-329.285
		c0-217.921-177.219-395.14-395.141-395.14c-72.64,0-131.715,59.074-131.715,131.714v592.71h-263.427V216.137L1006.418,216.137z
		 M545.422,2586.981V545.421h329.283v1909.847h395.141v131.713H545.422L545.422,2586.981z M1426.386,2943.991
		c-16.2-29.24-24.828-62.432-24.828-95.951V1730.845c145.28,0,263.429,118.147,263.429,263.428v422.402l115.777,115.779
		c137.706,137.705,213.508,320.787,213.508,515.527h131.713c0-22.195-1.578-44.127-3.227-66.057c1.121,0,2.175,0.199,3.227,0.199
		c159.045,0,292.077-113.342,322.634-263.428h401.794v141.656c0,27.855-5.73,54.855-17.058,80.213l-217.988,490.502
		c-11.127,25.023-17.979,51.238-22.587,77.908h-869.707c-6.783-31.939-17.715-62.959-33.652-91.672L1426.386,2943.991z
		 M1730.843,3904.12h592.712v-131.719h-592.71V3640.69h856.137v131.711h-131.714v131.719h131.714v131.713h-856.137V3904.12H1730.843
		z"/>
	<rect x="1796.701" y="1831.58" fill="#BB9C5C" width="131.713" height="131.714"/>
	<rect x="2916.265" y="874.705" fill="#BB9C5C" width="131.716" height="131.713"/>
	<rect x="2354.531" y="874.705" fill="#BB9C5C" width="131.712" height="131.713"/>
	<rect x="2323.555" y="1641.328" fill="#BB9C5C" width="790.283" height="131.713"/>
	<rect x="2323.555" y="2362.584" fill="#BB9C5C" width="790.283" height="131.713"/>
	<rect x="2323.555" y="1072.275" fill="#BB9C5C" width="790.283" height="131.714"/>
	<rect x="1138.131" y="1544.554" fill="#BB9C5C" width="790.281" height="131.714"/>
	<rect x="2323.555" y="677.134" fill="#BB9C5C" width="790.283" height="131.713"/>
	<rect x="1467.416" y="808.85" fill="#BB9C5C" width="131.713" height="131.714"/>
	<rect x="1730.843" y="808.85" fill="#BB9C5C" width="131.714" height="131.714"/>
	<rect x="1203.99" y="808.85" fill="#BB9C5C" width="131.714" height="131.714"/>
	<rect x="1138.131" y="545.421" fill="#BB9C5C" width="790.281" height="131.713"/>
	<rect x="1138.131" y="1072.275" fill="#BB9C5C" width="790.281" height="131.714"/>
	<rect x="1138.131" y="1335.702" fill="#BB9C5C" width="790.281" height="131.714"/>
	<rect x="1138.131" y="1831.58" fill="#BB9C5C" width="131.714" height="131.714"/>
	<rect x="2323.555" y="1153.872" fill="#BB9C5C" width="790.283" height="131.713"/>
	<rect x="2323.555" y="1335.702" fill="#BB9C5C" width="790.283" height="131.713"/>
	<rect x="2323.555" y="511.272" fill="#BB9C5C" width="790.283" height="131.714"/>
	<rect x="2323.555" y="1831.58" fill="#BB9C5C" width="790.283" height="131.714"/>
	<rect x="1862.557" y="3779.608" fill="#BB9C5C" width="790.281" height="131.717"/>
</g>
</svg>
