<?xml version="1.0" encoding="utf-8"?>
<!-- Generator: Adobe Illustrator 14.0.0, SVG Export Plug-In . SVG Version: 6.00 Build 43363)  -->
<!DOCTYPE svg PUBLIC "-//W3C//DTD SVG 1.1//EN" "http://www.w3.org/Graphics/SVG/1.1/DTD/svg11.dtd">
<svg version="1.1" id="Layer_1" xmlns="http://www.w3.org/2000/svg" xmlns:xlink="http://www.w3.org/1999/xlink" x="0px" y="0px"
	 width="4251.969px" height="4251.969px" viewBox="0 0 4251.969 4251.969" enable-background="new 0 0 4251.969 4251.969"
	 xml:space="preserve">
<g>
	<g>
		<g>
			<path fill="#BB9C5C" d="M3356.061,3830.403h-365.896c-49.895,0-93.137-36.59-99.789-86.484l-43.243-259.453
				c-53.222-23.283-103.116-53.223-153.013-89.811l-246.146,93.135c-43.244,19.959-96.463,0-123.074-43.242l-182.948-319.324
				c-26.609-43.244-16.629-99.791,23.286-129.73l202.905-166.32c-3.328-26.607-3.328-56.543-3.328-89.809
				c0-33.26,0-59.873,3.328-89.813l-202.905-166.314c-39.916-29.938-49.896-86.482-23.286-129.727l186.274-319.328
				c23.285-43.242,76.507-63.201,123.074-43.242l246.146,93.137c43.242-33.265,96.464-63.201,153.011-89.811l43.243-259.453
				c6.651-49.896,49.896-86.485,99.79-86.485h365.896c49.895,0,93.136,36.59,103.115,86.485l43.241,259.453
				c53.224,23.285,103.117,53.222,153.013,89.811l246.147-93.137c46.569-19.959,96.463,0,123.073,43.242l182.948,319.328
				c26.611,43.244,16.633,99.789-23.283,129.727l-202.906,169.643c3.325,26.611,3.325,56.549,3.325,89.813s0,59.873-3.325,89.811
				l202.906,166.318c39.914,33.262,49.896,89.811,16.631,133.053l-182.948,316.002c-23.285,43.244-76.508,63.201-123.074,43.244
				l-246.146-93.139c-43.242,33.264-96.464,63.199-153.012,89.811l-43.242,259.453
				C3445.869,3793.813,3405.953,3830.403,3356.061,3830.403z M2700.775,3321.475c6.651,0,13.304,3.326,19.956,6.652
				c53.223,39.914,106.445,73.178,169.645,99.789c9.98,3.326,16.633,13.305,19.957,26.611l46.567,279.414
				c3.327,16.631,16.632,29.938,33.265,29.938h365.896c16.632,0,29.938-13.309,33.264-29.938l46.568-279.414
				c3.326-9.98,9.979-19.959,19.958-26.611c63.199-26.611,119.748-59.875,169.643-96.465c9.979-6.648,23.285-9.979,33.262-6.648
				l262.781,99.789c16.632,6.652,33.262,0,43.242-16.631l182.948-319.326c0,0,0-3.328,3.326-3.328
				c13.304-16.631,6.653-33.264-3.326-43.242l0,0l-216.208-179.623c-9.979-6.654-13.306-19.959-13.306-29.938
				c3.327-29.939,6.65-63.201,6.65-96.463c0-33.266-3.323-66.527-6.65-96.467c-3.326-9.979,3.327-23.283,9.979-29.936
				l216.212-179.619c13.305-9.98,16.633-29.939,9.979-46.57l-182.949-319.328c-9.979-16.633-26.612-23.285-39.916-16.633
				l-262.78,99.791c-9.979,3.328-23.283,3.328-33.263-3.326c-53.223-39.916-106.442-73.179-169.641-99.791
				c-9.982-3.326-16.634-13.305-19.96-26.61l-46.568-279.412c-3.325-19.958-16.632-29.937-36.589-29.937h-372.55
				c-16.632,0-29.938,13.305-33.263,29.937l-46.569,279.412c-3.324,9.979-9.979,19.958-19.957,26.61
				c-63.198,23.287-119.748,56.55-166.316,96.46c-9.979,6.654-23.284,9.982-33.262,6.654l-262.781-99.79
				c-16.631-6.652-33.261,0-43.241,16.632l-186.272,322.652c-9.981,16.635-6.653,36.586,6.65,46.568l216.212,179.623
				c9.979,6.652,13.304,19.959,13.304,29.938c-3.323,29.939-6.651,63.201-6.651,96.461c0,33.268,3.328,66.527,6.651,96.467
				c3.326,9.979-3.323,23.283-13.304,29.934l-216.214,179.625c-13.307,9.98-16.633,29.939-9.979,46.57l182.944,319.328
				c9.98,16.631,26.613,23.283,39.918,16.631l266.105-99.791C2690.795,3324.801,2697.447,3321.475,2700.775,3321.475z"/>
			<g>
				<path fill="#BB9C5C" d="M3179.764,3208.377c-192.928,0-375.875-123.072-442.4-299.367
					c-83.158-219.539,16.633-488.971,226.19-615.371c3.325-3.328,6.65-3.328,9.978-3.328l36.59-6.648
					c9.979-3.328,19.957,0,26.611,6.648c6.652,6.654,13.307,16.631,13.307,26.611v375.877l129.727,76.504l133.056-76.504v-372.551
					c0-9.979,6.651-23.283,16.632-29.938c9.979-6.652,23.281-6.652,33.262,0l6.652,3.328
					c182.948,83.158,299.368,256.125,299.368,442.402c0,249.473-226.188,472.336-482.315,475.664
					C3179.764,3208.377,3179.764,3208.377,3179.764,3208.377z M2983.511,2360.167c-169.643,109.766-252.8,342.609-182.946,525.559
					c56.548,153.014,216.211,259.451,385.854,256.129c222.863-3.326,419.116-192.93,419.116-409.141
					c0-143.031-86.483-282.738-219.536-359.242v325.98c0,16.631-9.979,33.262-23.284,43.242l-159.665,89.811
					c-13.305,9.982-36.588,9.982-53.223,0l-146.357-86.484c-13.306-13.307-19.957-26.609-19.957-46.566L2983.511,2360.167
					L2983.511,2360.167z M3169.787,2772.629C3169.787,2775.956,3169.787,2775.956,3169.787,2772.629L3169.787,2772.629z
					 M3186.418,2772.629L3186.418,2772.629L3186.418,2772.629z"/>
				<path fill="#BB9C5C" d="M3050.039,3830.403c-19.961,0-33.265-13.305-33.265-33.264v-641.982
					c0-19.959,13.304-33.262,33.265-33.262c19.957,0,33.262,13.303,33.262,33.262v641.982
					C3083.301,3813.77,3066.668,3830.403,3050.039,3830.403z"/>
				<path fill="#BB9C5C" d="M3299.512,3830.403c-19.957,0-33.262-13.305-33.262-33.264v-638.654
					c0-19.959,13.305-33.264,33.262-33.264s33.263,13.305,33.263,33.264v638.654
					C3332.775,3813.77,3319.472,3830.403,3299.512,3830.403z"/>
			</g>
		</g>
		<path fill="#BB9C5C" d="M987.715,3830.403c-9.979,0-16.631-3.326-23.286-9.98c-6.651-6.652-9.979-13.305-9.979-23.285V2140.625
			c0-19.955,13.304-33.26,33.261-33.26c19.959,0,33.266,13.306,33.266,33.26v1623.25l941.35-3.324l0,0
			c19.956,0,33.264,13.303,33.264,33.262c0,19.957-13.308,33.264-33.264,33.264L987.715,3830.403L987.715,3830.403z"/>
		<g>
			<g>
				<path fill="#BB9C5C" d="M725.44,682.921c11.354,22.704,31.788,34.061,54.496,34.061c9.082,0,18.164-2.271,27.248-6.813
					c29.518-13.625,43.142-52.225,27.249-81.742L702.734,351.409c-13.625-29.517-52.225-43.142-81.743-27.248
					c-29.518,13.624-43.141,52.225-27.246,81.742L725.44,682.921z"/>
				<path fill="#BB9C5C" d="M1288.554,712.439c9.082,4.542,18.163,6.813,27.248,6.813c22.707,0,45.413-13.625,54.495-34.061
					l133.967-279.286c13.625-29.519,2.27-65.849-29.52-81.742c-29.517-13.623-65.847-2.27-81.74,29.519l-133.969,279.285
					C1245.412,660.213,1256.766,696.542,1288.554,712.439z"/>
			</g>
			<g>
				<path fill="#BB9C5C" d="M396.199,1109.798c27.249,0,52.225-18.166,59.036-45.413c9.082-31.787-11.353-65.848-43.142-74.932
					l-308.806-79.47c-31.787-9.083-65.847,11.353-74.931,43.142c-9.082,31.789,11.354,65.847,43.143,74.929l308.804,79.473
					C384.846,1109.798,391.657,1109.798,396.199,1109.798z"/>
				<path fill="#BB9C5C" d="M2067.377,955.394c-9.082-31.789-40.873-52.225-74.932-43.142l-308.805,79.472
					c-31.787,9.082-52.225,40.87-43.143,74.932c6.813,27.248,31.791,45.412,59.037,45.412c4.541,0,9.083,0,15.896-2.27
					l308.804-79.473C2056.025,1021.242,2076.459,987.185,2067.377,955.394z"/>
			</g>
			<path fill="#BB9C5C" d="M1685.912,1573.004h-47.683v-283.83c0-315.614-265.662-569.924-590.362-569.924
				c-324.699,0-590.363,256.579-590.363,569.924v283.83h-47.682c-86.283,0-158.942,70.388-158.942,154.402v102.177
				c0,86.284,70.389,154.402,158.942,154.402h1276.09c86.285,0,158.945-70.391,158.945-154.402v-102.177
				C1844.858,1643.392,1774.468,1573.004,1685.912,1573.004z M1722.242,1727.406v102.177c0,13.625-9.082,22.708-20.437,29.518
				l-56.765-163.482h40.869C1706.349,1695.617,1722.242,1711.511,1722.242,1727.406z M693.65,1695.617h79.474l59.037,165.756
				h-79.474L693.65,1695.617z M641.427,1861.373h-79.472l-59.037-165.756h79.473L641.427,1861.373z M884.385,1695.617h79.471
				l59.037,165.756h-79.471L884.385,1695.617z M1075.115,1695.617h79.474l59.037,165.756h-79.473L1075.115,1695.617z
				 M1263.576,1695.617h79.474l59.036,165.756h-79.473L1263.576,1695.617z M1454.31,1695.617h79.471l59.036,165.756h-79.472
				L1454.31,1695.617z M580.119,1289.174c0-247.497,211.168-449.583,467.75-449.583c256.58,0,467.748,202.086,467.748,449.583
				v283.83H580.119V1289.174z M373.493,1829.583v-102.177c0-13.624,9.083-22.708,20.437-29.519l56.766,163.485h-40.872
				C389.387,1861.373,373.493,1847.749,373.493,1829.583z"/>
		</g>
	</g>
</g>
</svg>
