<?xml version="1.0" encoding="utf-8"?>
<!-- Generator: Adobe Illustrator 14.0.0, SVG Export Plug-In . SVG Version: 6.00 Build 43363)  -->
<!DOCTYPE svg PUBLIC "-//W3C//DTD SVG 1.1//EN" "http://www.w3.org/Graphics/SVG/1.1/DTD/svg11.dtd">
<svg version="1.1" id="Layer_1" xmlns="http://www.w3.org/2000/svg" xmlns:xlink="http://www.w3.org/1999/xlink" x="0px" y="0px"
	 width="4251.969px" height="4251.969px" viewBox="0 0 4251.969 4251.969" enable-background="new 0 0 4251.969 4251.969"
	 xml:space="preserve">
<g>
	<path fill="#BB9C5C" d="M958.017,3419.688c0,54.645,44.67,99.268,99.264,99.268h1389.688v49.631
		c0,82.037,66.806,148.895,148.897,148.895s148.896-66.855,148.896-148.895v-49.631h1389.686c54.599,0,99.266-44.623,99.266-99.268
		s-44.667-99.264-99.266-99.264H2744.762v-49.633c0-82.09-66.805-148.895-148.896-148.895c-82.093,0-148.897,66.805-148.897,148.895
		v49.633H1057.281C1002.688,3320.424,958.017,3365.043,958.017,3419.688z M2496.603,3270.792c0-54.645,44.67-99.262,99.264-99.262
		c54.595,0,99.267,44.617,99.267,99.262v99.266v198.527c0,54.643-44.671,99.26-99.267,99.26c-54.594,0-99.264-44.617-99.264-99.26
		V3270.792z M1007.65,3419.688c0-27.395,22.187-49.631,49.632-49.631h1389.689v99.266h-1389.69
		C1029.836,3469.323,1007.65,3447.084,1007.65,3419.688z M2595.865,3221.163c27.396,0,49.633,22.236,49.633,49.631v297.793
		c0,27.395-22.235,49.631-49.633,49.631c-27.447,0-49.632-22.236-49.632-49.631v-297.793
		C2546.235,3243.399,2568.418,3221.163,2595.865,3221.163z"/>
	<path fill="#BB9C5C" d="M312.808,441.784c-54.646,0-99.266,44.668-99.266,99.263v893.421h-49.631
		c-82.041,0-148.896,66.805-148.896,148.896c0,82.139,66.855,148.942,148.896,148.942h49.631v893.375
		c0,54.596,44.619,99.264,99.266,99.264c54.643,0,99.261-44.668,99.261-99.264v-893.375h49.633
		c82.092,0,148.896-66.802,148.896-148.942c0-82.091-66.804-148.896-148.896-148.896H412.07V541.047
		C412.072,486.453,367.453,441.784,312.808,441.784z M461.703,1484.101c54.645,0,99.26,44.667,99.26,99.263
		c0,54.593-44.616,99.312-99.26,99.312H362.44H163.911c-54.646,0-99.264-44.719-99.264-99.312c0-54.596,44.619-99.263,99.264-99.263
		H461.703z M312.808,491.416c27.396,0,49.631,22.187,49.631,49.633v893.421h-99.264V541.047
		C263.176,513.603,285.411,491.416,312.808,491.416z M511.334,1583.363c0,27.397-22.235,49.635-49.631,49.635H163.911
		c-27.396,0-49.633-22.236-49.633-49.635c0-27.445,22.234-49.631,49.633-49.631h297.792
		C489.099,1533.732,511.334,1555.918,511.334,1583.363z"/>
	<rect x="2934.996" y="1682.678" fill="#BB9C5C" width="142.504" height="1042.264"/>
	<rect x="3191.446" y="1508.092" fill="#BB9C5C" width="124.079" height="1216.752"/>
	<rect x="3437.51" y="1338.979" fill="#BB9C5C" width="160.584" height="1385.865"/>
	<rect x="3692.692" y="1138.356" fill="#BB9C5C" width="124.08" height="1586.488"/>
	<polygon fill="#BB9C5C" points="755.541,2873.741 755.541,838.838 709.861,838.838 709.861,2923.374 4181.727,2923.374 
		4181.727,2873.741 	"/>
	<g>
		<path fill="#BB9C5C" d="M2571.354,973.375l388.639,417.458c92.336-100.706,151.055-233.547,156.299-380.76
			c11.117-312.035-219.949-575.938-524.44-612.112L2571.354,973.375z"/>
		<path fill="#BB9C5C" d="M1926.597,1017.35c14.414,306.341,261.297,555.605,573.286,566.721
			c145.676,5.188,280.824-42.587,387.384-125.753l-391.704-420.694L1926.597,1017.35z"/>
		<path fill="#BB9C5C" d="M2887.267,1458.316l46.351,49.774l72.633-67.585l-46.205-49.671
			C2937.618,1415.264,2913.368,1437.893,2887.267,1458.316z"/>
		<g>
			<path fill="#BB9C5C" d="M1828.5,914.528l644.804,22.974l22.974-644.801C2140.048,280.007,1841.193,558.296,1828.5,914.528z"/>
		</g>
	</g>
	<path fill="#BB9C5C" d="M970.594,2611.563c63.271,2.4,116.546-46.975,118.949-110.248c0.762-20.064-4.095-38.834-12.565-55.563
		c3.891-3.313,8.417-5.551,11.442-10.023l147.834-218.789c2.631-3.889,3.703-8.289,5.218-12.521
		c2.698,0.254,5.304,1.029,8.086,1.135c19.913,0.756,38.683-4.098,55.332-12.422c3.093,3.73,5.876,7.674,10.06,10.541l94.85,66.594
		c4.176,2.941,8.686,5.068,13.29,6.674c-0.245,2.551-0.936,4.855-1.034,7.486c-2.404,63.273,46.971,116.547,110.242,118.949
		c63.271,2.404,116.547-46.971,118.951-110.24c0.799-21.043-4.552-40.658-13.752-57.941c3.502-3.104,7.799-5.197,10.513-9.311
		l145.36-217.078c2.635-3.961,3.707-8.436,5.227-12.744c2.695,0.33,5.228,1.028,8.009,1.135c7.892,0.299,15.737-0.231,23.231-1.451
		c1.666,3.75,2.725,7.629,5.227,11.034l105.063,140.504c3.364,4.492,8.002,7.225,12.246,10.396
		c-5.289,12.441-8.733,25.855-9.277,40.133c-2.403,63.271,46.971,116.547,110.244,118.951
		c63.346,2.406,116.545-46.973,118.951-110.242c0.938-24.646-6.098-47.572-18.608-66.785c3.607-3.85,6.787-8.24,9.308-13.189
		l102-200.966c2.196-4.281,2.534-9.235,3.547-14.086c60.471-1.088,110.293-48.714,112.616-109.882
		c2.403-63.272-46.969-116.546-110.241-118.953c-63.275-2.404-116.549,46.971-118.952,110.244
		c-0.982,25.847,6.989,49.78,20.688,69.494c-3.694,4.146-6.728,8.771-9.1,13.799l-101.188,199.265
		c-2.031,3.912-2.341,8.116-3.396,12.139c-8.202-0.086-16.129,0.668-23.867,2.252c-1.602-3.444-2.514-7.093-4.879-10.268
		l-105.059-140.501c-2.789-3.793-6.613-6.196-10.112-9.114c6.071-13.24,9.784-27.773,10.373-43.252
		c2.403-63.272-46.972-116.546-110.244-118.951c-63.349-2.407-116.547,46.971-118.951,110.243
		c-0.794,20.89,4.489,40.356,13.543,57.558c-3.583,3.175-7.457,6.035-10.325,10.216l-145.361,217.079
		c-2.553,3.818-3.538,8.066-5.051,12.227c-2.773-0.334-5.457-1.035-8.31-1.143c-20.74-0.791-40.128,4.42-57.326,13.398
		c-2.886-3.348-5.379-6.977-9.116-9.68l-94.851-66.515c-3.958-2.785-8.356-3.929-12.659-5.522c0.436-3.521,1.314-6.871,1.457-10.557
		c2.405-63.348-46.972-116.544-110.247-118.949c-63.27-2.402-116.545,46.97-118.948,110.244c-0.791,20.813,4.416,40.2,13.469,57.403
		c-3.501,3.104-7.215,5.744-9.928,9.783l-147.832,218.787c-2.393,3.523-3.22,7.479-4.716,11.264
		c-3.667-0.52-7.247-1.404-11.002-1.551c-63.272-2.402-116.548,46.973-118.95,110.246
		C857.657,2555.571,907.321,2609.157,970.594,2611.563z"/>
</g>
</svg>
