<?xml version="1.0" encoding="UTF-8" standalone="no"?>
<!-- Generator: Adobe Illustrator 14.0.0, SVG Export Plug-In . SVG Version: 6.00 Build 43363)  -->

<svg
   xmlns:dc="http://purl.org/dc/elements/1.1/"
   xmlns:cc="http://creativecommons.org/ns#"
   xmlns:rdf="http://www.w3.org/1999/02/22-rdf-syntax-ns#"
   xmlns:svg="http://www.w3.org/2000/svg"
   xmlns="http://www.w3.org/2000/svg"
   xmlns:sodipodi="http://sodipodi.sourceforge.net/DTD/sodipodi-0.dtd"
   xmlns:inkscape="http://www.inkscape.org/namespaces/inkscape"
   version="1.1"
   id="Layer_1"
   x="0px"
   y="0px"
   width="266.46px"
   height="153.07px"
   viewBox="0 0 266.46 153.07"
   enable-background="new 0 0 266.46 153.07"
   xml:space="preserve"
   sodipodi:docname="CompanyLogo.svg"
   inkscape:version="0.92.5 (2060ec1f9f, 2020-04-08)"><metadata
   id="metadata143"><rdf:RDF><cc:Work
       rdf:about=""><dc:format>image/svg+xml</dc:format><dc:type
         rdf:resource="http://purl.org/dc/dcmitype/StillImage" /><dc:title></dc:title></cc:Work></rdf:RDF></metadata><defs
   id="defs141" /><sodipodi:namedview
   pagecolor="#ffffff"
   bordercolor="#666666"
   borderopacity="1"
   objecttolerance="10"
   gridtolerance="10"
   guidetolerance="10"
   inkscape:pageopacity="0"
   inkscape:pageshadow="2"
   inkscape:window-width="1208"
   inkscape:window-height="974"
   id="namedview139"
   showgrid="false"
   inkscape:zoom="1.3698116"
   inkscape:cx="133.23"
   inkscape:cy="76.535004"
   inkscape:window-x="72"
   inkscape:window-y="27"
   inkscape:window-maximized="1"
   inkscape:current-layer="Layer_1" />

<line
   fill="none"
   stroke="#000000"
   stroke-width="0.25"
   x1="233.927"
   y1="145.168"
   x2="233.927"
   y2="146.355"
   id="line4" />
<g
   id="g72">
	<g
   id="g70">
		<g
   id="g46">
			<g
   id="g14">
				<g
   id="g8">
					<path
   fill="#BC9D5C"
   d="M142.081,54.137c1.5-1.698,3.059-2.804,3.467-2.458c0.406,0.346-0.488,2.018-1.988,3.716       c-1.5,1.697-3.06,2.803-3.466,2.457C139.688,57.506,140.581,55.834,142.081,54.137z"
   id="path6" />
				</g>
				<g
   id="g12">
					<path
   fill="#BC9D5C"
   d="M130.414,44.199c1.499-1.698,3.059-2.804,3.466-2.458c0.408,0.347-0.486,2.019-1.986,3.716       c-1.5,1.698-3.06,2.803-3.466,2.458S128.915,45.896,130.414,44.199z"
   id="path10" />
				</g>
			</g>
			<g
   id="g18">
				<path
   fill="#BC9D5C"
   d="M131.854,40.018c0.353-0.399,4.068,2.192,8.255,5.758l0.491,0.418c4.188,3.565,7.324,6.81,6.973,7.209      c-0.354,0.399-4.068-2.191-8.255-5.758l-0.49-0.418C134.641,43.661,131.502,40.417,131.854,40.018z"
   id="path16" />
			</g>
			<g
   id="g22">
				<path
   fill="#BC9D5C"
   d="M129.129,43.106c0.353-0.399,4.067,2.192,8.253,5.759l0.488,0.415c4.187,3.567,7.323,6.812,6.972,7.211      c-0.354,0.399-4.068-2.192-8.255-5.759l-0.488-0.416C131.914,46.75,128.777,43.505,129.129,43.106z"
   id="path20" />
			</g>
			<g
   id="g26">
				<path
   fill="#BC9D5C"
   d="M126.403,46.191c0.353-0.399,4.066,2.192,8.253,5.758l0.488,0.417c4.188,3.566,7.325,6.812,6.972,7.21      c-0.352,0.399-4.065-2.192-8.252-5.758l-0.49-0.417C129.187,49.835,126.049,46.59,126.403,46.191z"
   id="path24" />
			</g>
			<g
   id="g30">
				<path
   fill="#BC9D5C"
   d="M128.25,53.173c0.353-0.399,2.119,0.534,3.926,2.073s2.996,3.125,2.642,3.523      c-0.352,0.398-2.119-0.534-3.925-2.073S127.897,53.572,128.25,53.173z"
   id="path28" />
			</g>
			<g
   id="g34">
				<path
   fill="#BC9D5C"
   d="M145.966,52.671c-0.178,0.2-3.281-2.156-6.897-5.235c-3.615-3.079-6.429-5.762-6.251-5.962      c0.177-0.199,1.197-1.933,2.267-3.853c1.07-1.919,1.471-7.477,1.465-7.517s-0.023-0.156-0.037-0.257      c-0.014-0.101,0.383-4.836,0.916-10.31c0,0,0.145-1.498,3.95-5.806c7.494-8.486,20.623-9.402,29.271-2.041      c8.639,7.358,9.57,20.25,2.08,28.735c-3.809,4.308-5.426,4.694-5.426,4.694c-5.352,1.276-9.842,2.32-9.982,2.32      c-0.141,0-2.268,0.422-4.438,0.935C150.714,48.887,146.142,52.471,145.966,52.671z M137.119,37.873      c-1.035,2.064,0.42,5.714,3.234,8.111c2.813,2.397,6.7,3.295,8.638,1.997c1.938-1.299,7.91-2.459,8.055-2.462      s4.891-1.049,10.24-2.327c0,0,0.516-0.123,3.959-4.025c6.791-7.683,5.945-19.36-1.883-26.025      c-7.824-6.666-19.719-5.837-26.506,1.848c-3.444,3.902-3.483,4.287-3.483,4.287c-0.537,5.474-0.967,10.029-0.951,10.123      c0.014,0.094,0.059,0.404,0.064,0.451C138.494,29.895,138.152,35.809,137.119,37.873z"
   id="path32" />
			</g>
			<g
   id="g44">
				<g
   id="g38">
					<path
   fill="#BC9D5C"
   d="M143.368,45.017c1.332-1.508,2.754-2.459,3.162-2.113c0.406,0.347-0.352,1.864-1.684,3.372       s-2.754,2.459-3.162,2.113S142.034,46.525,143.368,45.017z"
   id="path36" />
				</g>
				<g
   id="g42">
					<path
   fill="#BC9D5C"
   d="M139.424,41.659c1.331-1.508,2.755-2.458,3.163-2.112c0.406,0.346-0.352,1.863-1.684,3.371       c-1.333,1.508-2.757,2.459-3.163,2.113C137.336,44.685,138.094,43.167,139.424,41.659z"
   id="path40" />
				</g>
			</g>
		</g>
		<g
   id="g68">
			<g
   id="g50">
				<path
   fill="#BC9D5C"
   d="M154.392,40.603c-4.375-0.83-9.143-4.891-10.598-9.024c-1.455-4.133-0.258-10.219,2.662-13.523      c2.918-3.304,8.885-5.33,13.258-4.5c4.373,0.829,9.141,4.89,10.598,9.023c1.455,4.134,0.256,10.22-2.662,13.524      S158.765,41.432,154.392,40.603z M147.933,19.314c-2.51,2.843-3.541,8.08-2.289,11.637c1.25,3.557,5.352,7.051,9.115,7.764      s8.896-1.03,11.408-3.873s3.543-8.08,2.291-11.636s-5.355-7.05-9.117-7.764C155.577,14.729,150.444,16.471,147.933,19.314z"
   id="path48" />
			</g>
			<g
   id="g56">
				<g
   id="g54">
					<path
   fill="#BC9D5C"
   d="M156.505,26.283c2.488-1.652,4.771-2.646,5.072-2.209c0.303,0.437-1.488,2.147-3.977,3.801       c-2.49,1.653-4.773,2.647-5.074,2.209C152.224,29.646,154.015,27.935,156.505,26.283z"
   id="path52" />
				</g>
			</g>
			<g
   id="g66">
				<g
   id="g60">
					<path
   fill="#BC9D5C"
   d="M150.942,27.887c-0.537,0.037-1.096-1.589-1.24-3.614c-0.146-2.025,1.422-3.8,3.482-3.943       c2.063-0.143,3.781,0.17,3.82,0.697c0.037,0.527-1.178,1.045-2.703,1.152s-2.686,1.419-2.578,2.917       C151.831,26.594,151.479,27.849,150.942,27.887z"
   id="path58" />
				</g>
				<g
   id="g64">
					<path
   fill="#BC9D5C"
   d="M160.923,33.827c-2.061,0.144-3.779-0.169-3.818-0.697c-0.041-0.527,1.176-1.045,2.701-1.152       c1.523-0.106,2.684-1.419,2.574-2.917s0.242-2.753,0.779-2.79c0.539-0.037,1.098,1.589,1.244,3.613       S162.983,33.683,160.923,33.827z"
   id="path62" />
				</g>
			</g>
		</g>
	</g>
</g>
<g
   id="g86">
	<path
   fill="#BC9D5C"
   d="M49.334,69.113H62.92c0.439,0,0.83,0.164,1.169,0.491c0.34,0.327,0.51,0.713,0.51,1.157   c0,0.459-0.167,0.854-0.5,1.187c-0.333,0.333-0.727,0.501-1.179,0.501h-5.075v19.442h5.075c0.466,0,0.862,0.16,1.189,0.48   c0.326,0.322,0.49,0.711,0.49,1.168c0,0.459-0.167,0.848-0.5,1.166c-0.333,0.322-0.727,0.48-1.179,0.48H49.334   c-0.466,0-0.862-0.158-1.189-0.48c-0.327-0.318-0.489-0.707-0.489-1.166c0-0.457,0.162-0.846,0.489-1.168   c0.327-0.32,0.723-0.48,1.189-0.48h5.155V72.449h-5.155c-0.466,0-0.862-0.164-1.189-0.491c-0.327-0.327-0.489-0.712-0.489-1.158   c0-0.471,0.162-0.869,0.489-1.196C48.472,69.276,48.868,69.113,49.334,69.113z"
   id="path74" />
	<path
   fill="#BC9D5C"
   d="M72.371,73.606v-4.454h16.943v4.493c0,0.458-0.167,0.846-0.5,1.167c-0.333,0.321-0.726,0.481-1.179,0.481   c-0.466,0-0.869-0.163-1.208-0.49c-0.34-0.328-0.51-0.713-0.51-1.158v-1.197h-3.396v21.09c0,0.459-0.167,0.848-0.5,1.166   c-0.334,0.322-0.727,0.48-1.179,0.48c-0.479,0-0.886-0.158-1.219-0.48c-0.333-0.318-0.5-0.707-0.5-1.166v-21.09h-3.396v1.157   c0,0.458-0.163,0.847-0.49,1.167c-0.326,0.32-0.722,0.481-1.188,0.481s-0.862-0.161-1.189-0.481   C72.534,74.453,72.371,74.064,72.371,73.606z"
   id="path76" />
	<path
   fill="#BC9D5C"
   d="M121.841,95.186V70.761c0-0.444,0.166-0.83,0.499-1.157s0.727-0.491,1.18-0.491   c0.452,0,0.846,0.164,1.179,0.491s0.499,0.713,0.499,1.157v21.13h11.869c0.465,0,0.869,0.16,1.209,0.48   c0.34,0.322,0.51,0.711,0.51,1.168c0,0.459-0.17,0.848-0.51,1.166c-0.34,0.322-0.744,0.48-1.209,0.48H121.841z"
   id="path78" />
	<path
   fill="#BC9D5C"
   d="M163.46,82.455v3.982c0,0.443-0.168,0.83-0.5,1.156c-0.334,0.328-0.727,0.49-1.178,0.49h-11.869v0.963   c0,0.563,0.246,1.039,0.74,1.432l0.979,0.805c0.533,0.404,1.039,0.607,1.518,0.607h8.633c0.451,0,0.844,0.16,1.178,0.48   c0.332,0.322,0.5,0.711,0.5,1.168c0,0.445-0.17,0.832-0.51,1.158s-0.729,0.488-1.168,0.488h-8.852   c-0.588,0-1.201-0.121-1.848-0.361c-0.646-0.242-1.125-0.494-1.43-0.756l-1.498-1.295c-0.467-0.365-0.857-0.875-1.17-1.529   s-0.469-1.256-0.469-1.807v-7.551c0-0.434,0.17-1.016,0.51-1.748s0.768-1.301,1.289-1.707l1.398-1.079   c0.918-0.732,1.938-1.099,3.057-1.099h4.715c1.186,0,2.305,0.483,3.357,1.452l1.258,1.177   C163.007,79.682,163.46,80.871,163.46,82.455z M149.952,82.199v2.551h10.191v-2.295c0-0.615-0.195-1.088-0.58-1.414l-0.98-0.844   c-0.504-0.404-0.959-0.607-1.357-0.607h-4.215c-0.52,0-0.992,0.176-1.42,0.529l-0.979,0.805   C150.173,81.252,149.952,81.676,149.952,82.199z"
   id="path80" />
	<path
   fill="#BC9D5C"
   d="M176.274,83.297h6.582c0.361,0,0.881,0.08,1.563,0.236l-0.041-2.336c0-0.457-0.162-0.846-0.49-1.166   c-0.326-0.32-0.723-0.48-1.191-0.48h-6.387c-0.453,0-0.846-0.164-1.18-0.49c-0.334-0.328-0.5-0.713-0.5-1.158   c0-0.458,0.162-0.848,0.488-1.167c0.326-0.321,0.725-0.481,1.191-0.481h6.383c1.389,0,2.572,0.478,3.553,1.433   c0.98,0.954,1.49,2.126,1.531,3.511l0.418,12.342c0,0.459-0.166,0.848-0.498,1.166c-0.334,0.322-0.727,0.48-1.178,0.48   c-0.482,0-0.887-0.158-1.219-0.48c-0.334-0.318-0.5-0.707-0.5-1.166l-2.842,1.646h-5.684c-1.412,0-2.613-0.482-3.602-1.451   c-0.986-0.967-1.479-2.145-1.479-3.531v-1.922c0-1.373,0.496-2.547,1.488-3.521S174.874,83.297,176.274,83.297z M184.669,89.713   l-0.1-1.393c-0.014-0.471-0.182-0.863-0.5-1.178c-0.322-0.314-0.713-0.471-1.182-0.471h-6.619c-0.467,0-0.863,0.16-1.189,0.48   s-0.49,0.709-0.49,1.168v1.844c0,0.445,0.166,0.83,0.5,1.158c0.334,0.326,0.727,0.49,1.18,0.49h4.74L184.669,89.713z"
   id="path82" />
	<path
   fill="#BC9D5C"
   d="M203.929,80.08l-4.584,2.924v10.535c0,0.445-0.166,0.832-0.5,1.158c-0.332,0.326-0.727,0.488-1.18,0.488   s-0.844-0.162-1.176-0.488c-0.334-0.326-0.502-0.713-0.502-1.158V77.903c0-0.458,0.164-0.854,0.49-1.187   c0.326-0.334,0.723-0.502,1.188-0.502c0.453,0,0.848,0.168,1.18,0.502c0.334,0.333,0.5,0.729,0.5,1.187V79l3.064-1.824   c1.025-0.64,2.186-0.962,3.479-0.962h1.563c1.334,0,2.488,0.465,3.463,1.394c0.971,0.93,1.486,2.074,1.539,3.434l0.459,12.498   c0.014,0.445-0.146,0.832-0.48,1.158c-0.332,0.326-0.73,0.488-1.195,0.488c-0.441,0-0.828-0.146-1.16-0.439   c-0.332-0.295-0.508-0.697-0.52-1.207l-0.5-12.301c-0.039-1.152-0.654-1.729-1.844-1.729h-1.641   C205.065,79.51,204.517,79.701,203.929,80.08z"
   id="path84" />
</g>
<g
   id="g124">
	<path
   fill="#BC9D5C"
   d="M58.047,116.639v0.484c0,0.605-0.219,1.125-0.656,1.559c-0.438,0.434-0.965,0.652-1.581,0.652h-3.424   v-8.693h3.424c0.616,0,1.144,0.217,1.581,0.648c0.437,0.432,0.656,0.953,0.656,1.563v0.465c0,0.65-0.255,1.203-0.767,1.662   C57.792,115.445,58.047,115.998,58.047,116.639z M56.902,113.303v-0.451c0-0.305-0.11-0.564-0.33-0.783s-0.483-0.328-0.789-0.328   h-2.278v2.662h2.278c0.302,0,0.564-0.107,0.786-0.322C56.791,113.863,56.902,113.605,56.902,113.303z M56.902,117.123v-0.457   c0-0.305-0.11-0.568-0.33-0.785c-0.22-0.219-0.483-0.326-0.789-0.326h-2.264v2.668h2.264c0.302,0,0.564-0.109,0.786-0.324   C56.791,117.682,56.902,117.424,56.902,117.123z"
   id="path88" />
	<path
   fill="#BC9D5C"
   d="M60.638,117.686v-6.48c0-0.152,0.055-0.285,0.166-0.396c0.111-0.111,0.242-0.168,0.393-0.168   c0.15,0,0.281,0.057,0.393,0.164c0.11,0.111,0.167,0.238,0.167,0.387v6.494c0,0.143,0.055,0.268,0.167,0.377   c0.111,0.105,0.242,0.16,0.393,0.16h2.29c0.156,0,0.288-0.053,0.397-0.158c0.108-0.105,0.163-0.23,0.163-0.379v-6.48   c0-0.158,0.055-0.289,0.163-0.4c0.109-0.107,0.242-0.164,0.396-0.164c0.156,0,0.288,0.057,0.396,0.164   c0.109,0.111,0.163,0.242,0.163,0.4v6.467c0,0.453-0.165,0.844-0.497,1.17c-0.331,0.328-0.724,0.492-1.182,0.492h-2.29   c-0.463,0-0.857-0.162-1.186-0.484C60.802,118.527,60.638,118.139,60.638,117.686z"
   id="path90" />
	<path
   fill="#BC9D5C"
   d="M70.149,110.641h2.914c0.356,0,0.693,0.148,1.01,0.443c0.318,0.293,0.477,0.65,0.477,1.068   c0,0.158-0.057,0.291-0.169,0.4c-0.114,0.107-0.239,0.162-0.377,0.162c-0.191,0-0.322-0.041-0.393-0.127s-0.139-0.242-0.204-0.475   c-0.064-0.23-0.207-0.346-0.43-0.346h-2.77c-0.134,0-0.2,0.041-0.2,0.125c-0.004,0.055,0.024,0.117,0.082,0.186l4.16,5.207   c0.2,0.254,0.3,0.523,0.3,0.811c0,0.328-0.121,0.615-0.363,0.865c-0.242,0.248-0.511,0.373-0.809,0.373h-3.017   c-0.4,0-0.748-0.15-1.043-0.449c-0.295-0.297-0.442-0.625-0.442-0.984c0-0.408,0.195-0.615,0.586-0.615   c0.15,0,0.279,0.055,0.386,0.162c0.107,0.105,0.161,0.232,0.161,0.375c0,0.117,0.041,0.217,0.123,0.295   c0.082,0.078,0.185,0.117,0.31,0.117h2.783c0.12,0,0.18-0.047,0.18-0.141c0.004-0.043-0.024-0.1-0.082-0.172l-4.153-5.207   c-0.196-0.248-0.294-0.518-0.294-0.811c0-0.34,0.124-0.635,0.373-0.887C69.498,110.768,69.797,110.641,70.149,110.641z"
   id="path92" />
	<path
   fill="#BC9D5C"
   d="M77.674,110.641h4.528c0.146,0,0.277,0.057,0.39,0.164c0.113,0.111,0.169,0.238,0.169,0.387   c0,0.152-0.055,0.285-0.167,0.395c-0.111,0.111-0.242,0.166-0.393,0.166H80.51v6.482h1.691c0.156,0,0.288,0.053,0.397,0.16   c0.108,0.107,0.162,0.236,0.162,0.391c0,0.152-0.055,0.281-0.167,0.389c-0.111,0.105-0.242,0.16-0.393,0.16h-4.528   c-0.156,0-0.288-0.055-0.397-0.16c-0.109-0.107-0.163-0.236-0.163-0.389c0-0.154,0.054-0.283,0.163-0.391   c0.109-0.107,0.241-0.16,0.397-0.16h1.718v-6.482h-1.718c-0.156,0-0.288-0.053-0.397-0.162c-0.109-0.107-0.163-0.236-0.163-0.385   c0-0.158,0.054-0.289,0.163-0.4C77.386,110.697,77.518,110.641,77.674,110.641z"
   id="path94" />
	<path
   fill="#BC9D5C"
   d="M91,111.205v8.129h-1.5l-3.015-6.75v6.201c0,0.152-0.055,0.281-0.163,0.389   c-0.109,0.105-0.241,0.16-0.396,0.16s-0.288-0.055-0.396-0.16c-0.109-0.107-0.164-0.236-0.164-0.389v-8.145h1.478l3.024,6.736   v-6.172c0-0.152,0.057-0.285,0.17-0.396c0.112-0.111,0.247-0.168,0.402-0.168c0.156,0,0.288,0.057,0.397,0.164   C90.945,110.916,91,111.047,91,111.205z"
   id="path96" />
	<path
   fill="#BC9D5C"
   d="M98.678,111.752h-3.956v2.676h1.705c0.151,0,0.282,0.055,0.393,0.164c0.111,0.109,0.167,0.238,0.167,0.387   c0,0.156-0.054,0.289-0.163,0.398c-0.108,0.109-0.241,0.162-0.396,0.162h-1.705v2.695h3.97c0.15,0,0.282,0.053,0.393,0.16   c0.11,0.107,0.167,0.236,0.167,0.391c0,0.152-0.057,0.281-0.17,0.389c-0.113,0.105-0.248,0.16-0.403,0.16h-5.074v-8.693h5.074   c0.156,0,0.291,0.057,0.403,0.168c0.114,0.111,0.17,0.244,0.17,0.396c0,0.148-0.057,0.277-0.17,0.385   C98.968,111.699,98.833,111.752,98.678,111.752z"
   id="path98" />
	<path
   fill="#BC9D5C"
   d="M103.102,110.641h2.914c0.357,0,0.693,0.148,1.011,0.443c0.318,0.293,0.477,0.65,0.477,1.068   c0,0.158-0.058,0.291-0.17,0.4c-0.114,0.107-0.239,0.162-0.376,0.162c-0.191,0-0.322-0.041-0.393-0.127   c-0.072-0.086-0.139-0.242-0.204-0.475c-0.063-0.23-0.208-0.346-0.43-0.346h-2.769c-0.134,0-0.2,0.041-0.2,0.125   c-0.004,0.055,0.024,0.117,0.081,0.186l4.16,5.207c0.2,0.254,0.301,0.523,0.301,0.811c0,0.328-0.121,0.615-0.363,0.865   c-0.242,0.248-0.512,0.373-0.809,0.373h-3.018c-0.4,0-0.747-0.15-1.042-0.449c-0.295-0.297-0.443-0.625-0.443-0.984   c0-0.408,0.196-0.615,0.586-0.615c0.151,0,0.28,0.055,0.386,0.162c0.107,0.105,0.161,0.232,0.161,0.375   c0,0.117,0.04,0.217,0.124,0.295c0.081,0.078,0.185,0.117,0.309,0.117h2.784c0.12,0,0.18-0.047,0.18-0.141   c0.004-0.043-0.024-0.1-0.083-0.172l-4.152-5.207c-0.195-0.248-0.294-0.518-0.294-0.811c0-0.34,0.125-0.635,0.373-0.887   C102.451,110.768,102.75,110.641,103.102,110.641z"
   id="path100" />
	<path
   fill="#BC9D5C"
   d="M111.339,110.641h2.915c0.356,0,0.692,0.148,1.01,0.443c0.317,0.293,0.477,0.65,0.477,1.068   c0,0.158-0.057,0.291-0.17,0.4c-0.112,0.107-0.238,0.162-0.376,0.162c-0.191,0-0.322-0.041-0.394-0.127   c-0.07-0.086-0.139-0.242-0.203-0.475c-0.064-0.23-0.208-0.346-0.431-0.346h-2.769c-0.134,0-0.2,0.041-0.2,0.125   c-0.004,0.055,0.024,0.117,0.081,0.186l4.16,5.207c0.201,0.254,0.301,0.523,0.301,0.811c0,0.328-0.121,0.615-0.362,0.865   c-0.242,0.248-0.513,0.373-0.81,0.373h-3.018c-0.4,0-0.747-0.15-1.042-0.449c-0.295-0.297-0.442-0.625-0.442-0.984   c0-0.408,0.195-0.615,0.585-0.615c0.151,0,0.28,0.055,0.387,0.162c0.107,0.105,0.16,0.232,0.16,0.375   c0,0.117,0.042,0.217,0.124,0.295c0.081,0.078,0.185,0.117,0.309,0.117h2.784c0.12,0,0.179-0.047,0.179-0.141   c0.005-0.043-0.023-0.1-0.081-0.172l-4.153-5.207c-0.195-0.248-0.293-0.518-0.293-0.811c0-0.34,0.124-0.635,0.373-0.887   C110.688,110.768,110.988,110.641,111.339,110.641z"
   id="path102" />
	<path
   fill="#BC9D5C"
   d="M126.589,118.568l2.253-7.518c0.09-0.271,0.277-0.41,0.565-0.41c0.277,0,0.454,0.117,0.525,0.348   l2.23,7.633c0.018,0.055,0.027,0.111,0.027,0.164c0,0.152-0.054,0.281-0.161,0.389c-0.105,0.105-0.228,0.16-0.366,0.16   c-0.293,0-0.479-0.133-0.558-0.4l-0.443-1.49h-2.561l-0.489,1.598c-0.013,0.068-0.068,0.135-0.166,0.199   c-0.099,0.063-0.206,0.094-0.322,0.094c-0.164,0-0.301-0.055-0.408-0.164c-0.106-0.109-0.161-0.242-0.161-0.4   C126.555,118.707,126.567,118.639,126.589,118.568z M129.4,113.186l-0.96,3.146h1.893L129.4,113.186z"
   id="path104" />
	<path
   fill="#BC9D5C"
   d="M134.781,117.686v-6.48c0-0.152,0.057-0.285,0.166-0.396c0.111-0.111,0.242-0.168,0.395-0.168   c0.15,0,0.281,0.057,0.393,0.164c0.111,0.111,0.166,0.238,0.166,0.387v6.494c0,0.143,0.057,0.268,0.166,0.377   c0.111,0.105,0.242,0.16,0.395,0.16h2.289c0.156,0,0.289-0.053,0.396-0.158c0.109-0.105,0.164-0.23,0.164-0.379v-6.48   c0-0.158,0.055-0.289,0.162-0.4c0.109-0.107,0.24-0.164,0.396-0.164s0.289,0.057,0.396,0.164c0.109,0.111,0.164,0.242,0.164,0.4   v6.467c0,0.453-0.166,0.844-0.496,1.17c-0.33,0.328-0.725,0.492-1.184,0.492h-2.289c-0.463,0-0.857-0.162-1.186-0.484   C134.945,118.527,134.781,118.139,134.781,117.686z"
   id="path106" />
	<path
   fill="#BC9D5C"
   d="M143.021,112.141v-1.484h5.646v1.496c0,0.152-0.055,0.281-0.166,0.391   c-0.111,0.105-0.242,0.158-0.393,0.158c-0.156,0-0.291-0.055-0.402-0.162c-0.115-0.109-0.17-0.238-0.17-0.387v-0.4h-1.133v7.033   c0,0.152-0.055,0.281-0.166,0.389c-0.111,0.105-0.242,0.16-0.395,0.16c-0.16,0-0.295-0.055-0.406-0.16   c-0.111-0.107-0.166-0.236-0.166-0.389v-7.033h-1.131v0.389c0,0.152-0.057,0.281-0.164,0.387c-0.109,0.109-0.24,0.162-0.396,0.162   s-0.289-0.053-0.395-0.162C143.073,112.422,143.021,112.293,143.021,112.141z"
   id="path108" />
	<path
   fill="#BC9D5C"
   d="M155.413,111.447l1.232,2.465c0.174,0.334,0.26,0.701,0.26,1.092c0,0.383-0.086,0.746-0.26,1.086   l-1.232,2.439c-0.262,0.535-0.705,0.805-1.33,0.805c-0.299,0-0.568-0.076-0.805-0.23c-0.236-0.15-0.416-0.344-0.535-0.574   l-1.238-2.439c-0.166-0.318-0.246-0.682-0.246-1.086c0-0.406,0.08-0.77,0.246-1.092l1.238-2.465   c0.279-0.537,0.725-0.807,1.34-0.807C154.702,110.641,155.147,110.91,155.413,111.447z M153.71,111.994l-1.16,2.316   c-0.107,0.23-0.16,0.457-0.16,0.682c0,0.238,0.053,0.467,0.16,0.686l1.193,2.342c0.061,0.145,0.174,0.215,0.34,0.215   c0.141,0,0.25-0.07,0.326-0.215l1.199-2.342c0.111-0.232,0.166-0.461,0.166-0.686c0-0.242-0.055-0.467-0.166-0.682l-1.174-2.316   c-0.076-0.168-0.193-0.254-0.352-0.254C153.921,111.74,153.798,111.826,153.71,111.994z"
   id="path110" />
	<path
   fill="#BC9D5C"
   d="M161.761,114.055v-0.279l-1.16-1.623v6.633c0,0.152-0.053,0.281-0.162,0.389   c-0.109,0.105-0.24,0.16-0.396,0.16s-0.287-0.055-0.396-0.164s-0.164-0.238-0.164-0.385v-8.145h1.447l1.377,1.971l1.418-1.971h1.42   v8.145c0,0.152-0.057,0.281-0.17,0.389c-0.111,0.105-0.248,0.16-0.402,0.16c-0.15,0-0.281-0.055-0.393-0.164   s-0.166-0.238-0.166-0.385v-6.605l-1.133,1.57v0.305c0,0.148-0.057,0.279-0.166,0.387c-0.111,0.109-0.242,0.164-0.395,0.164   c-0.154,0-0.287-0.055-0.395-0.164C161.813,114.334,161.761,114.203,161.761,114.055z"
   id="path112" />
	<path
   fill="#BC9D5C"
   d="M167.78,118.568l2.254-7.518c0.09-0.271,0.277-0.41,0.566-0.41c0.275,0,0.453,0.117,0.523,0.348   l2.232,7.633c0.016,0.055,0.025,0.111,0.025,0.164c0,0.152-0.053,0.281-0.16,0.389c-0.105,0.105-0.229,0.16-0.365,0.16   c-0.293,0-0.479-0.133-0.561-0.4l-0.441-1.49h-2.563l-0.486,1.598c-0.014,0.068-0.07,0.135-0.168,0.199   c-0.098,0.063-0.205,0.094-0.32,0.094c-0.166,0-0.303-0.055-0.408-0.164c-0.107-0.109-0.162-0.242-0.162-0.4   C167.747,118.707,167.759,118.639,167.78,118.568z M170.593,113.186l-0.961,3.146h1.893L170.593,113.186z"
   id="path114" />
	<path
   fill="#BC9D5C"
   d="M175.974,112.141v-1.484h5.646v1.496c0,0.152-0.057,0.281-0.168,0.391c-0.109,0.105-0.24,0.158-0.393,0.158   c-0.154,0-0.289-0.055-0.4-0.162c-0.115-0.109-0.17-0.238-0.17-0.387v-0.4h-1.133v7.033c0,0.152-0.057,0.281-0.168,0.389   c-0.109,0.105-0.242,0.16-0.393,0.16c-0.16,0-0.295-0.055-0.406-0.16c-0.111-0.107-0.168-0.236-0.168-0.389v-7.033h-1.131v0.389   c0,0.152-0.055,0.281-0.162,0.387c-0.111,0.109-0.242,0.162-0.396,0.162c-0.156,0-0.287-0.053-0.396-0.162   C176.026,112.422,175.974,112.293,175.974,112.141z"
   id="path116" />
	<path
   fill="#BC9D5C"
   d="M184.771,110.641h4.527c0.146,0,0.277,0.057,0.391,0.164c0.113,0.111,0.17,0.238,0.17,0.387   c0,0.152-0.057,0.285-0.166,0.395c-0.111,0.111-0.242,0.166-0.395,0.166h-1.689v6.482h1.689c0.156,0,0.289,0.053,0.396,0.16   c0.109,0.107,0.164,0.236,0.164,0.391c0,0.152-0.057,0.281-0.166,0.389c-0.111,0.105-0.242,0.16-0.395,0.16h-4.527   c-0.156,0-0.289-0.055-0.396-0.16c-0.109-0.107-0.164-0.236-0.164-0.389c0-0.154,0.055-0.283,0.164-0.391   c0.107-0.107,0.24-0.16,0.396-0.16h1.719v-6.482h-1.719c-0.156,0-0.289-0.053-0.396-0.162c-0.109-0.107-0.164-0.236-0.164-0.385   c0-0.158,0.055-0.289,0.164-0.4C184.481,110.697,184.614,110.641,184.771,110.641z"
   id="path118" />
	<path
   fill="#BC9D5C"
   d="M196.604,111.447l1.232,2.465c0.172,0.334,0.26,0.701,0.26,1.092c0,0.383-0.088,0.746-0.26,1.086   l-1.232,2.439c-0.262,0.535-0.707,0.805-1.332,0.805c-0.297,0-0.566-0.076-0.803-0.23c-0.238-0.15-0.416-0.344-0.537-0.574   l-1.238-2.439c-0.164-0.318-0.246-0.682-0.246-1.086c0-0.406,0.082-0.77,0.246-1.092l1.238-2.465   c0.281-0.537,0.727-0.807,1.34-0.807C195.894,110.641,196.337,110.91,196.604,111.447z M194.899,111.994l-1.158,2.316   c-0.107,0.23-0.16,0.457-0.16,0.682c0,0.238,0.053,0.467,0.16,0.686l1.193,2.342c0.061,0.145,0.174,0.215,0.338,0.215   c0.141,0,0.252-0.07,0.326-0.215l1.199-2.342c0.111-0.232,0.168-0.461,0.168-0.686c0-0.242-0.057-0.467-0.168-0.682l-1.172-2.316   c-0.076-0.168-0.193-0.254-0.354-0.254S194.989,111.826,194.899,111.994z"
   id="path120" />
	<path
   fill="#BC9D5C"
   d="M206.333,111.205v8.129h-1.498l-3.018-6.75v6.201c0,0.152-0.053,0.281-0.162,0.389   c-0.109,0.105-0.24,0.16-0.396,0.16c-0.154,0-0.287-0.055-0.396-0.16c-0.107-0.107-0.162-0.236-0.162-0.389v-8.145h1.479   l3.023,6.736v-6.172c0-0.152,0.057-0.285,0.17-0.396s0.248-0.168,0.402-0.168c0.156,0,0.289,0.057,0.396,0.164   C206.28,110.916,206.333,111.047,206.333,111.205z"
   id="path122" />
</g>
<line
   fill="#BC9D5C"
   stroke="#BC9D5C"
   stroke-width="0.5"
   x1="156.005"
   y1="56.739"
   x2="225.69"
   y2="56.739"
   id="line126" />
<line
   fill="#BC9D5C"
   stroke="#BC9D5C"
   stroke-width="0.5"
   x1="225.69"
   y1="56.739"
   x2="225.69"
   y2="116.459"
   id="line128" />
<line
   fill="#BC9D5C"
   stroke="#BC9D5C"
   stroke-width="0.5"
   x1="225.69"
   y1="116.459"
   x2="210.769"
   y2="116.459"
   id="line130" />
<line
   fill="none"
   stroke="#BC9D5C"
   stroke-width="0.5"
   x1="118.257"
   y1="56.739"
   x2="33.315"
   y2="56.739"
   id="line132" />
<line
   fill="#BC9D5C"
   stroke="#BC9D5C"
   stroke-width="0.5"
   x1="33.315"
   y1="56.739"
   x2="33.315"
   y2="116.277"
   id="line134" />
<line
   fill="#BC9D5C"
   stroke="#BC9D5C"
   stroke-width="0.5"
   x1="47.31"
   y1="116.459"
   x2="33.315"
   y2="116.459"
   id="line136" />
</svg>